<svg id="visual" viewBox="0 0 900 600" width="900" height="600" xmlns="http://www.w3.org/2000/svg" xmlns:xlink="http://www.w3.org/1999/xlink" version="1.1"><path d="M0 55L53 49L106 55L159 43L212 55L265 79L318 55L371 49L424 61L476 55L529 73L582 61L635 67L688 79L741 55L794 67L847 43L900 85L900 0L847 0L794 0L741 0L688 0L635 0L582 0L529 0L476 0L424 0L371 0L318 0L265 0L212 0L159 0L106 0L53 0L0 0Z" fill="#f7fcfa"></path><path d="M0 79L53 85L106 91L159 79L212 79L265 109L318 97L371 67L424 73L476 67L529 85L582 103L635 85L688 103L741 97L794 103L847 85L900 103L900 83L847 41L794 65L741 53L688 77L635 65L582 59L529 71L476 53L424 59L371 47L318 53L265 77L212 53L159 41L106 53L53 47L0 53Z" fill="#ebfaf5"></path><path d="M0 109L53 103L106 133L159 109L212 127L265 157L318 121L371 121L424 127L476 115L529 103L582 157L635 103L688 121L741 145L794 127L847 115L900 139L900 101L847 83L794 101L741 95L688 101L635 83L582 101L529 83L476 65L424 71L371 65L318 95L265 107L212 77L159 77L106 89L53 83L0 77Z" fill="#dff8f0"></path><path d="M0 283L53 283L106 301L159 277L212 199L265 325L318 301L371 259L424 283L476 319L529 229L582 313L635 307L688 187L741 277L794 325L847 223L900 211L900 137L847 113L794 125L741 143L688 119L635 101L582 155L529 101L476 113L424 125L371 119L318 119L265 155L212 125L159 107L106 131L53 101L0 107Z" fill="#d3f5eb"></path><path d="M0 331L53 325L106 337L159 325L212 247L265 349L318 343L371 313L424 337L476 355L529 289L582 343L635 379L688 247L741 295L794 391L847 259L900 271L900 209L847 221L794 323L741 275L688 185L635 305L582 311L529 227L476 317L424 281L371 257L318 299L265 323L212 197L159 275L106 299L53 281L0 281Z" fill="#c6f3e8"></path><path d="M0 421L53 415L106 463L159 385L212 409L265 445L318 409L371 427L424 403L476 439L529 391L582 409L635 451L688 385L741 439L794 469L847 433L900 421L900 269L847 257L794 389L741 293L688 245L635 377L582 341L529 287L476 353L424 335L371 311L318 341L265 347L212 245L159 323L106 335L53 323L0 329Z" fill="#b8f1e4"></path><path d="M0 451L53 433L106 487L159 409L212 445L265 481L318 427L371 475L424 445L476 481L529 433L582 457L635 469L688 421L741 463L794 499L847 451L900 451L900 419L847 431L794 467L741 437L688 383L635 449L582 407L529 389L476 437L424 401L371 425L318 407L265 443L212 407L159 383L106 461L53 413L0 419Z" fill="#aaefe1"></path><path d="M0 517L53 511L106 541L159 511L212 547L265 541L318 523L371 565L424 541L476 517L529 529L582 523L635 553L688 517L741 535L794 559L847 487L900 565L900 449L847 449L794 497L741 461L688 419L635 467L582 455L529 431L476 479L424 443L371 473L318 425L265 479L212 443L159 407L106 485L53 431L0 449Z" fill="#9aeddf"></path><path d="M0 535L53 523L106 571L159 553L212 559L265 577L318 553L371 577L424 577L476 547L529 565L582 553L635 577L688 535L741 571L794 571L847 529L900 577L900 563L847 485L794 557L741 533L688 515L635 551L582 521L529 527L476 515L424 539L371 563L318 521L265 539L212 545L159 509L106 539L53 509L0 515Z" fill="#8aeadd"></path><path d="M0 601L53 601L106 601L159 601L212 601L265 601L318 601L371 601L424 601L476 601L529 601L582 601L635 601L688 601L741 601L794 601L847 601L900 601L900 575L847 527L794 569L741 569L688 533L635 575L582 551L529 563L476 545L424 575L371 575L318 551L265 575L212 557L159 551L106 569L53 521L0 533Z" fill="#77e8db"></path></svg>